<?xml version="1.0" standalone="no"?>
<!DOCTYPE svg PUBLIC "-//W3C//DTD SVG 20010904//EN"
 "http://www.w3.org/TR/2001/REC-SVG-20010904/DTD/svg10.dtd">
<svg version="1.0" xmlns="http://www.w3.org/2000/svg"
 width="256.000000pt" height="256.000000pt" viewBox="0 0 256.000000 256.000000"
 preserveAspectRatio="xMidYMid meet">

<g transform="translate(0.000000,256.000000) scale(0.100000,-0.100000)"
fill="#000000" stroke="none">
<path d="M960 2549 c-93 -14 -233 -63 -320 -112 -88 -49 -264 -218 -325 -311
-149 -230 -195 -579 -109 -834 74 -222 248 -378 442 -398 l57 -5 -70 38 c-95
52 -138 87 -192 158 -61 81 -110 181 -134 273 -23 91 -25 265 -5 364 36 169
133 336 269 464 119 112 220 168 378 211 96 26 281 23 382 -5 242 -69 430
-235 548 -486 131 -280 121 -591 -26 -835 -71 -117 -155 -210 -309 -339 -86
-72 -160 -144 -193 -187 -67 -88 -135 -225 -166 -335 -27 -94 -43 -200 -30
-200 4 1 25 35 45 78 101 208 300 380 524 452 50 16 145 36 210 44 196 24 325
77 353 144 11 26 10 35 -8 71 -30 57 -27 81 14 120 42 39 44 55 10 77 -37 24
-35 77 5 114 17 15 30 35 30 44 0 22 -36 56 -60 56 -23 0 -43 32 -34 54 3 9
26 25 50 35 24 11 44 24 44 29 0 6 -16 38 -35 72 -19 34 -35 66 -35 71 0 5
-27 34 -60 66 -85 81 -112 128 -165 293 -75 230 -124 312 -274 460 -136 134
-272 207 -455 246 -91 19 -273 26 -356 13z"/>
</g>
</svg>
